<?xml version="1.0"?>
<svg xmlns="http://www.w3.org/2000/svg" xmlns:xlink="http://www.w3.org/1999/xlink" xmlns:svgjs="http://svgjs.com/svgjs" version="1.1" width="512" height="512" x="0" y="0" viewBox="0 0 192 192" style="enable-background:new 0 0 512 512" xml:space="preserve" class=""><g><path xmlns="http://www.w3.org/2000/svg" d="m32.485 63.515h128v64h-128z" transform="matrix(.707 -.707 .707 .707 -39.279 96.201)" fill="#ffffff" data-original="#000000" style="" class=""/><path xmlns="http://www.w3.org/2000/svg" d="m22.946 123.8-8.485 8.485a8 8 0 0 0 -2.332 6.089l.482 8.916-11.378 33.321a8.071 8.071 0 0 0 10.156 10.156l33.322-11.378 8.916.482a8.039 8.039 0 0 0 6.089-2.332l8.485-8.485z" fill="#ffffff" data-original="#000000" style="" class=""/><path xmlns="http://www.w3.org/2000/svg" d="m189.823 36.118-33.941-33.941a8 8 0 0 0 -11.313 0l-19.8 19.8 45.255 45.253 19.8-19.8a8 8 0 0 0 -.001-11.312z" fill="#ffffff" data-original="#000000" style="" class=""/></g></svg>
