<?xml version="1.0"?>
<svg xmlns="http://www.w3.org/2000/svg" xmlns:xlink="http://www.w3.org/1999/xlink" xmlns:svgjs="http://svgjs.com/svgjs" version="1.1" width="512" height="512" x="0" y="0" viewBox="0 0 480 480" style="enable-background:new 0 0 512 512" xml:space="preserve" class=""><g><path xmlns="http://www.w3.org/2000/svg" d="m240 480c-132.5-.101562-239.898438-107.5-240-240 0-4.398438 3.601562-8 8-8s8 3.601562 8 8c0 123.699219 100.300781 224 224 224s224-100.300781 224-224-100.300781-224-224-224c-4.398438 0-8-3.601562-8-8s3.601562-8 8-8c132.5 0 240 107.5 240 240s-107.5 240-240 240zm0 0" fill="#fed136" data-original="#000000" style="" class=""/><path xmlns="http://www.w3.org/2000/svg" d="m192 16h-96c-4.398438 0-8-3.601562-8-8s3.601562-8 8-8h96c4.398438 0 8 3.601562 8 8s-3.601562 8-8 8zm0 0" fill="#fed136" data-original="#000000" style="" class=""/><path xmlns="http://www.w3.org/2000/svg" d="m72 8c0 4.417969-3.582031 8-8 8s-8-3.582031-8-8 3.582031-8 8-8 8 3.582031 8 8zm0 0" fill="#fed136" data-original="#000000" style="" class=""/><path xmlns="http://www.w3.org/2000/svg" d="m192 64h-96c-4.398438 0-8-3.601562-8-8s3.601562-8 8-8h96c4.398438 0 8 3.601562 8 8s-3.601562 8-8 8zm0 0" fill="#fed136" data-original="#000000" style="" class=""/><path xmlns="http://www.w3.org/2000/svg" d="m72 56c0 4.417969-3.582031 8-8 8s-8-3.582031-8-8 3.582031-8 8-8 8 3.582031 8 8zm0 0" fill="#fed136" data-original="#000000" style="" class=""/><path xmlns="http://www.w3.org/2000/svg" d="m192 112h-96c-4.398438 0-8-3.601562-8-8s3.601562-8 8-8h96c4.398438 0 8 3.601562 8 8s-3.601562 8-8 8zm0 0" fill="#fed136" data-original="#000000" style="" class=""/><path xmlns="http://www.w3.org/2000/svg" d="m72 104c0 4.417969-3.582031 8-8 8s-8-3.582031-8-8 3.582031-8 8-8 8 3.582031 8 8zm0 0" fill="#fed136" data-original="#000000" style="" class=""/><path xmlns="http://www.w3.org/2000/svg" d="m336 240c0 53.019531-42.980469 96-96 96s-96-42.980469-96-96 42.980469-96 96-96 96 42.980469 96 96zm0 0" fill="#fed136" data-original="#000000" style="" class=""/><path xmlns="http://www.w3.org/2000/svg" d="m240 432c-93.199219.199219-173.101562-66.800781-189.101562-158.601562-.796876-4.398438 2.101562-8.5 6.5-9.296876 4.402343-.800781 8.5 2.097657 9.300781 6.5 16.902343 95.699219 108.199219 159.597657 203.902343 142.699219 95.699219-16.902343 159.597657-108.199219 142.699219-203.902343-14.902343-84.097657-87.902343-145.398438-173.300781-145.398438-4.398438 0-8-3.601562-8-8s3.601562-8 8-8c106 0 192 86 192 192s-86 192-192 192zm0 0" fill="#fed136" data-original="#000000" style="" class=""/><path xmlns="http://www.w3.org/2000/svg" d="m240 384c-53.199219 0-102-29.199219-127.101562-76.199219-2.097657-3.902343-.699219-8.699219 3.101562-10.902343 3.800781-2.199219 8.699219-.699219 10.898438 3.101562 0 .101562.101562.101562.101562.199219 33.300781 62.402343 110.800781 85.902343 173.199219 52.601562 62.402343-33.300781 85.902343-110.800781 52.601562-173.199219-22.199219-41.601562-65.601562-67.601562-112.800781-67.601562-4.398438 0-8-3.601562-8-8s3.601562-8 8-8c79.5 0 144 64.5 144 144s-64.5 144-144 144zm0 0" fill="#fed136" data-original="#000000" style="" class=""/></g></svg>
